<svg width="25" height="25" viewBox="0 0 25 25" fill="none" xmlns="http://www.w3.org/2000/svg" style="margin-top: -10px; margin-bottom: -5px;"> <g clip-path="url(#clip0_12969_36320)"> <path d="M12.4099 4.74927L14.7377 5.7163L15.7043 8.04458C15.757 8.15005 15.8683 8.21835 15.9854 8.21835C16.1026 8.21835 16.214 8.15005 16.2667 8.04458L17.2333 5.7163L19.5592 4.74927C19.6706 4.69653 19.7349 4.58511 19.7349 4.46792C19.7349 4.35074 19.6705 4.23946 19.5592 4.18672L17.2334 3.22021L16.2668 0.893799C16.2162 0.782471 16.1037 0.718018 15.9865 0.718018C15.8693 0.718018 15.7581 0.782471 15.7054 0.893799L14.7388 3.22021L12.411 4.18724C12.3055 4.23997 12.237 4.35125 12.237 4.46844C12.237 4.58563 12.3068 4.69677 12.4099 4.74927ZM24.0959 10.9977L22.2387 10.2182L21.4596 8.36052C21.4186 8.27263 21.3307 8.21975 21.2369 8.21975C21.1853 8.21975 21.0553 8.27263 21.0143 8.36052L20.2352 10.2182L18.3771 10.9977C18.2892 11.0387 18.2364 11.1264 18.2364 11.2202C18.2364 11.3139 18.2892 11.402 18.3771 11.443L20.2343 12.2225L21.0134 14.0802C21.0544 14.1681 21.1422 14.2206 21.236 14.2206C21.2875 14.2206 21.4177 14.1681 21.4587 14.0802L22.2377 12.2225L24.0949 11.443C24.1849 11.4008 24.2365 11.3118 24.2365 11.218C24.2365 11.1243 24.1849 11.0352 24.0959 10.9977ZM17.3084 13.243L12.3959 12.5268L10.2021 8.06333C10.0193 7.69302 9.64429 7.45864 9.23179 7.46333C8.82398 7.45864 8.44429 7.69302 8.27086 8.06333L6.07242 12.4883L1.16039 13.243C0.28136 13.3321 -0.0795495 14.4618 0.564935 15.0852L4.12134 18.554L3.31978 23.4571C3.15445 24.1133 3.71179 24.718 4.33898 24.718C4.51476 24.718 4.68754 24.6791 4.84008 24.5912L9.23648 22.2765L13.6305 24.5912C13.9938 24.7846 14.4391 24.7499 14.7673 24.5097C15.1012 24.2695 15.2651 23.8633 15.1947 23.4592L14.3552 18.554L17.914 15.0852C18.5459 14.4665 18.1943 13.3321 17.3084 13.243ZM11.9318 17.7711L12.5702 21.4977L9.23648 19.7399L5.89101 21.4977L6.53554 17.7711L3.82898 15.1321L7.56726 14.5874L9.23648 11.2086L10.9052 14.5883L14.6435 15.133L11.9318 17.7711Z" fill="#EAAA21"/> </g> <defs> <clipPath id="clip0_12969_36320"> <rect width="24" height="24" fill="white" transform="translate(0.236328 0.718018)"/> </clipPath> </defs> </svg>